<svg width="391" height="129" viewBox="0 0 391 129" fill="none" xmlns="http://www.w3.org/2000/svg">
<path d="M12.1631 74H2.26309L19.3631 23.45H31.5881L48.6881 74H38.4881L34.8881 62.525H15.7631L12.1631 74ZM25.3631 30.5C24.9631 32.65 22.5881 40.75 18.2381 54.8H32.4881C28.3381 41.15 25.9631 33.05 25.3631 30.5ZM65.4002 74H55.9502V23.45H71.5502C77.3002 23.45 81.8002 24.9 85.0502 27.8C88.3502 30.7 90.0002 34.575 90.0002 39.425C89.9502 43.025 89.0752 46.075 87.3752 48.575C85.6752 51.025 83.3502 52.85 80.4002 54.05L93.3752 74H82.0502L70.5752 55.55H65.4002V74ZM71.5502 31.25H65.4002V47.75H71.7002C74.6002 47.75 76.7752 47.025 78.2252 45.575C79.6752 44.075 80.4002 42.025 80.4002 39.425C80.4002 36.775 79.6252 34.75 78.0752 33.35C76.5752 31.95 74.4002 31.25 71.5502 31.25ZM139.34 54.575C139.34 61.125 137.565 66.125 134.015 69.575C130.515 72.975 125.715 74.675 119.615 74.675C113.565 74.675 108.74 73 105.14 69.65C101.59 66.25 99.8152 61.4 99.8152 55.1V23.45H109.265V55.025C109.265 58.875 110.215 61.675 112.115 63.425C114.015 65.125 116.49 65.975 119.54 65.975C126.44 65.975 129.89 62.2 129.89 54.65V23.45H139.34V54.575ZM159.004 74H149.554V23.45H159.004V74ZM189.829 74H177.904L159.754 48.95L177.229 23.45H188.554L171.004 48.8L189.829 74ZM235.873 54.575C235.873 61.125 234.098 66.125 230.548 69.575C227.048 72.975 222.248 74.675 216.148 74.675C210.098 74.675 205.273 73 201.673 69.65C198.123 66.25 196.348 61.4 196.348 55.1V23.45H205.798V55.025C205.798 58.875 206.748 61.675 208.648 63.425C210.548 65.125 213.023 65.975 216.073 65.975C222.973 65.975 226.423 62.2 226.423 54.65V23.45H235.873V54.575ZM273.987 40.1V54.65C273.987 55.55 273.612 55.775 272.562 55.775C271.437 55.775 267.387 55.775 264.012 55.625C265.137 57.875 266.412 61.325 266.787 63.8C272.187 63.8 276.162 63.725 279.162 62.525C282.237 61.25 283.062 59 283.062 54.95V40.1H273.987ZM258.312 41.825C255.162 47.45 249.762 53.225 244.287 56.75C246.612 58.1 250.512 60.875 252.462 62.525C257.712 58.325 263.862 51.425 267.687 44.75L258.312 41.825ZM290.562 46.1C295.887 51.05 302.187 58.025 304.812 62.675L312.762 57.575C309.837 52.775 303.237 46.1 297.912 41.525L290.562 46.1ZM291.537 52.475C285.387 66.575 271.887 71 250.287 72.65C252.087 74.9 253.887 78.575 254.637 81.425C278.637 78.425 293.562 72.425 300.837 55.1L291.537 52.475ZM244.512 32.45V41H312.237V32.45H244.512ZM279.387 17.45V25.55H304.887V17.45H279.387ZM273.912 10.325V37.175H283.212V10.325H273.912ZM254.712 15.425V35.75H263.862V15.425H254.712ZM370.887 20L362.112 12.2C360.912 14 358.512 16.475 356.337 18.575C351.312 23.525 340.962 31.85 335.112 36.65C327.612 42.875 327.012 46.925 334.437 53.3C341.337 59.075 352.362 68.525 356.862 73.25C359.112 75.5 361.362 77.825 363.462 80.225L372.162 72.125C364.512 64.7 350.262 53.525 344.637 48.8C340.587 45.275 340.512 44.375 344.487 41C349.512 36.65 359.412 29 364.287 25.1C366.012 23.675 368.487 21.725 370.887 20Z" fill="#F8C683"/>
</svg>
