<svg width="402" height="134" viewBox="0 0 402 134" fill="none" xmlns="http://www.w3.org/2000/svg">
<path d="M367.174 9.59295L361.629 9.57026C361.892 10.684 361.943 12.2316 361.952 13.2035C361.973 15.3994 362.05 19.6469 362.442 22.9556C363.543 32.5942 366.996 36.0916 370.992 36.056C373.872 36.0304 376.083 33.8507 378.435 27.5295L374.757 23.2061C374.1 26.056 372.737 30.3163 371.009 30.3317C368.741 30.3518 367.627 26.7976 367.073 21.6183C366.832 18.9924 366.807 16.3285 366.784 13.9886C366.774 12.9806 366.934 10.8551 367.174 9.59295ZM385.181 10.2248L380.624 11.7774C384.59 16.2063 386.618 24.9006 387.214 30.7276L391.948 28.8134C391.499 23.3092 388.64 14.3342 385.181 10.2248ZM374.636 59.3246L377.577 61.9265C379.007 60.9057 381.794 58.6489 382.722 57.8486L381.615 55.0503C379.152 53.5242 375.285 51.9025 372.286 50.8491L369.654 54.1847C372.399 55.1323 375.329 56.5823 376.888 57.6485C376.388 58.0489 375.494 58.7049 374.636 59.3246ZM368.675 75.9742L369.405 80.6839C371.172 81.0282 373.226 81.226 375.242 81.208C378.95 81.175 382.392 79.7044 382.345 74.8806C382.313 71.5328 380.159 68.3478 376.233 64.4945C375.324 63.5666 374.38 62.675 373.29 61.6046L369.826 64.5875C370.986 65.4412 372.257 66.546 373.165 67.4019C374.764 68.9718 377.316 72.2252 377.337 74.4211C377.353 76.077 376.063 76.7365 374.227 76.7529C372.499 76.7682 370.66 76.4966 368.675 75.9742ZM388.645 78.5687L393.014 76.1898C391.866 72.8159 389.006 67.3691 386.747 64.6171L382.879 66.7395C385.32 69.7419 387.747 74.9766 388.645 78.5687ZM370.832 71.8869L368.062 68.3834C365.961 70.7421 362.066 73.8009 358.987 75.5204L361.76 79.3838C365.553 76.974 368.837 74.0287 370.832 71.8869ZM386.363 54.6481L383.531 55.8613C384.516 57.2566 385.653 59.3706 386.387 60.8401L389.255 59.5906C388.594 58.2644 387.276 55.972 386.363 54.6481ZM390.596 52.9904L387.763 54.2036C388.784 55.5266 389.956 57.6402 390.727 59.1454L393.559 57.8602C392.934 56.6057 391.581 54.3497 390.596 52.9904ZM375.265 94.8244L369.931 94.2958C369.993 96.9953 369.627 100.059 368.974 103.305C368.009 107.849 365.401 117.377 361.172 123.175L365.906 125.005C369.591 118.888 372.409 108.602 373.548 103.516C373.89 101.677 374.337 99.4408 374.645 97.818C374.853 96.9161 375.058 95.7622 375.265 94.8244ZM387.716 98.0618L383.414 99.9361C386.037 103.117 388.655 109.574 389.629 113.597L394.181 111.433C393.032 107.987 389.942 101.174 387.716 98.0618ZM360.756 102.334L361.235 107.19C362.313 107 364.182 106.731 365.225 106.578C367.202 106.309 373.387 105.461 375.547 105.442C377.778 105.422 379.043 105.843 379.07 108.723C379.104 112.251 378.678 116.647 377.69 118.672C377.125 119.865 376.229 120.233 375.005 120.244C374.069 120.252 372.013 119.91 370.606 119.527L371.407 124.272C372.67 124.549 374.364 124.75 375.768 124.737C378.468 124.713 380.44 123.903 381.64 121.373C383.122 118.263 383.57 112.427 383.529 108.179C383.479 102.96 380.763 101.292 376.983 101.325C374.283 101.349 367.487 102.202 364.608 102.299C363.276 102.347 362.053 102.394 360.756 102.334Z" fill="#BF1E1E"/>
<path d="M109.944 78L105.264 62.7H81.8642L77.1842 78H62.5142L85.1942 13.47H101.844L124.614 78H109.944ZM97.3442 36.33C97.0442 35.31 96.6542 34.02 96.1742 32.46C95.6942 30.9 95.2142 29.31 94.7342 27.69C94.2542 26.07 93.8642 24.66 93.5642 23.46C93.2642 24.66 92.8442 26.16 92.3042 27.96C91.8242 29.7 91.3442 31.38 90.8642 33C90.4442 34.56 90.1142 35.67 89.8742 36.33L85.2842 51.27H102.024L97.3442 36.33ZM156.31 78H148.585V27.45H162.685C168.485 27.45 172.96 28.875 176.11 31.725C179.26 34.525 180.835 38.35 180.835 43.2C180.785 46.75 179.885 49.775 178.135 52.275C176.385 54.725 173.96 56.5 170.86 57.6L184.06 78H174.835L162.985 58.8H156.31V78ZM162.91 33.9H156.31V52.35H163.285C166.485 52.35 168.91 51.525 170.56 49.875C172.21 48.175 173.035 45.925 173.035 43.125C173.035 36.975 169.66 33.9 162.91 33.9ZM229.312 58.65C229.312 65.2 227.612 70.175 224.212 73.575C220.812 76.975 216.137 78.675 210.187 78.675C204.237 78.675 199.562 77.025 196.162 73.725C192.762 70.375 191.062 65.55 191.062 59.25V27.45H198.787V59.175C198.787 63.475 199.812 66.625 201.862 68.625C203.962 70.575 206.712 71.55 210.112 71.55C217.762 71.55 221.587 67.3 221.587 58.8V27.45H229.312V58.65ZM247.863 78H240.138V27.45H247.863V78ZM277.713 78H267.963L248.838 53.025L267.213 27.45H276.588L258.063 52.95L277.713 78ZM323.135 58.65C323.135 65.2 321.435 70.175 318.035 73.575C314.635 76.975 309.96 78.675 304.01 78.675C298.06 78.675 293.385 77.025 289.985 73.725C286.585 70.375 284.885 65.55 284.885 59.25V27.45H292.61V59.175C292.61 63.475 293.635 66.625 295.685 68.625C297.785 70.575 300.535 71.55 303.935 71.55C311.585 71.55 315.41 67.3 315.41 58.8V27.45H323.135V58.65Z" fill="white"/>
<path d="M346 101L43 101" stroke="white" stroke-width="7"/>
</svg>
