<svg width="402" height="134" viewBox="0 0 402 134" fill="none" xmlns="http://www.w3.org/2000/svg">
<path d="M367.174 9.59295L361.629 9.57026C361.892 10.684 361.943 12.2316 361.952 13.2035C361.973 15.3994 362.05 19.6469 362.442 22.9556C363.543 32.5942 366.996 36.0916 370.992 36.056C373.872 36.0304 376.083 33.8507 378.435 27.5295L374.757 23.2061C374.1 26.056 372.737 30.3163 371.009 30.3317C368.741 30.3518 367.627 26.7976 367.073 21.6183C366.832 18.9924 366.807 16.3285 366.784 13.9886C366.774 12.9806 366.934 10.8551 367.174 9.59295ZM385.181 10.2248L380.624 11.7774C384.59 16.2063 386.618 24.9006 387.214 30.7276L391.948 28.8134C391.499 23.3092 388.64 14.3342 385.181 10.2248ZM374.636 59.3246L377.577 61.9265C379.007 60.9057 381.794 58.6489 382.722 57.8486L381.615 55.0503C379.152 53.5242 375.285 51.9025 372.286 50.8491L369.654 54.1847C372.399 55.1323 375.329 56.5823 376.888 57.6485C376.388 58.0489 375.494 58.7049 374.636 59.3246ZM368.675 75.9742L369.405 80.6839C371.172 81.0282 373.226 81.226 375.242 81.208C378.95 81.175 382.392 79.7044 382.345 74.8806C382.313 71.5328 380.159 68.3478 376.233 64.4945C375.324 63.5666 374.38 62.675 373.29 61.6046L369.826 64.5875C370.986 65.4412 372.257 66.546 373.165 67.4019C374.764 68.9718 377.316 72.2252 377.337 74.4211C377.353 76.077 376.063 76.7365 374.227 76.7529C372.499 76.7682 370.66 76.4966 368.675 75.9742ZM388.645 78.5687L393.014 76.1898C391.866 72.8159 389.006 67.3691 386.747 64.6171L382.879 66.7395C385.32 69.7419 387.747 74.9766 388.645 78.5687ZM370.832 71.8869L368.062 68.3834C365.961 70.7421 362.066 73.8009 358.987 75.5204L361.76 79.3838C365.553 76.974 368.837 74.0287 370.832 71.8869ZM386.363 54.6481L383.531 55.8613C384.516 57.2566 385.653 59.3706 386.387 60.8401L389.255 59.5906C388.594 58.2644 387.276 55.972 386.363 54.6481ZM390.596 52.9904L387.763 54.2036C388.784 55.5266 389.956 57.6402 390.727 59.1454L393.559 57.8602C392.934 56.6057 391.581 54.3497 390.596 52.9904ZM375.265 94.8244L369.931 94.2958C369.993 96.9953 369.627 100.059 368.974 103.305C368.009 107.849 365.401 117.377 361.172 123.175L365.906 125.005C369.591 118.888 372.409 108.602 373.548 103.516C373.89 101.677 374.337 99.4408 374.645 97.818C374.853 96.9161 375.058 95.7622 375.265 94.8244ZM387.716 98.0618L383.414 99.9361C386.037 103.117 388.655 109.574 389.629 113.597L394.181 111.433C393.032 107.987 389.942 101.174 387.716 98.0618ZM360.756 102.334L361.235 107.19C362.313 107 364.182 106.731 365.225 106.578C367.202 106.309 373.387 105.461 375.547 105.442C377.778 105.422 379.043 105.843 379.07 108.723C379.104 112.251 378.678 116.647 377.69 118.672C377.125 119.865 376.229 120.233 375.005 120.244C374.069 120.252 372.013 119.91 370.606 119.527L371.407 124.272C372.67 124.549 374.364 124.75 375.768 124.737C378.468 124.713 380.44 123.903 381.64 121.373C383.122 118.263 383.57 112.427 383.529 108.179C383.479 102.96 380.763 101.292 376.983 101.325C374.283 101.349 367.487 102.202 364.608 102.299C363.276 102.347 362.053 102.394 360.756 102.334Z" fill="#BF1E1E"/>
<path d="M79.7687 78H50.5187V70.26L58.3487 66.66V25.08L50.5187 21.48V13.74H79.7687V21.48L71.9387 25.08V66.66L79.7687 70.26V78ZM123.426 55.65H114.276V71.625H124.176C130.526 71.625 133.701 69 133.701 63.75C133.701 61.2 132.826 59.225 131.076 57.825C129.376 56.375 126.826 55.65 123.426 55.65ZM122.526 33.825H114.276V49.35H121.251C125.001 49.35 127.776 48.6 129.576 47.1C131.426 45.55 132.351 43.625 132.351 41.325C132.351 39.025 131.526 37.2 129.876 35.85C128.276 34.5 125.826 33.825 122.526 33.825ZM125.976 78H106.551V27.45H123.126C128.426 27.45 132.601 28.7 135.651 31.2C138.701 33.65 140.226 36.9 140.226 40.95C140.226 43.75 139.426 46.2 137.826 48.3C136.276 50.4 134.276 51.75 131.826 52.35C134.576 52.85 136.876 54.125 138.726 56.175C140.626 58.225 141.576 61.125 141.576 64.875C141.576 68.575 140.201 71.7 137.451 74.25C134.751 76.75 130.926 78 125.976 78ZM206.687 58.65C206.687 65.2 204.987 70.175 201.587 73.575C198.187 76.975 193.512 78.675 187.562 78.675C181.612 78.675 176.937 77.025 173.537 73.725C170.137 70.375 168.437 65.55 168.437 59.25V27.45H176.162V59.175C176.162 63.475 177.187 66.625 179.237 68.625C181.337 70.575 184.087 71.55 187.487 71.55C195.137 71.55 198.962 67.3 198.962 58.8V27.45H206.687V58.65ZM243.695 78H235.97V27.45H243.695V78ZM273.545 78H263.795L244.67 53.025L263.045 27.45H272.42L253.895 52.95L273.545 78ZM304.35 78H296.175L313.65 27.45H323.775L341.025 78H332.775L328.8 65.625H308.4L304.35 78ZM318.675 33.3C318.325 34.75 315.6 43.375 310.5 59.175H326.7C322.35 45.725 319.675 37.1 318.675 33.3Z" fill="white"/>
<path d="M367.174 9.59295L361.629 9.57026C361.892 10.684 361.943 12.2316 361.952 13.2035C361.973 15.3994 362.05 19.6469 362.442 22.9556C363.543 32.5942 366.996 36.0916 370.992 36.056C373.872 36.0304 376.083 33.8507 378.435 27.5295L374.757 23.2061C374.1 26.056 372.737 30.3163 371.009 30.3317C368.741 30.3518 367.627 26.7976 367.073 21.6183C366.832 18.9924 366.807 16.3285 366.784 13.9886C366.774 12.9806 366.934 10.8551 367.174 9.59295ZM385.181 10.2248L380.624 11.7774C384.59 16.2063 386.618 24.9006 387.214 30.7276L391.948 28.8134C391.499 23.3092 388.64 14.3342 385.181 10.2248ZM374.636 59.3246L377.577 61.9265C379.007 60.9057 381.794 58.6489 382.722 57.8486L381.615 55.0503C379.152 53.5242 375.285 51.9025 372.286 50.8491L369.654 54.1847C372.399 55.1323 375.329 56.5823 376.888 57.6485C376.388 58.0489 375.494 58.7049 374.636 59.3246ZM368.675 75.9742L369.405 80.6839C371.172 81.0282 373.226 81.226 375.242 81.208C378.95 81.175 382.392 79.7044 382.345 74.8806C382.313 71.5328 380.159 68.3478 376.233 64.4945C375.324 63.5666 374.38 62.675 373.29 61.6046L369.826 64.5875C370.986 65.4412 372.257 66.546 373.165 67.4019C374.764 68.9718 377.316 72.2252 377.337 74.4211C377.353 76.077 376.063 76.7365 374.227 76.7529C372.499 76.7682 370.66 76.4966 368.675 75.9742ZM388.645 78.5687L393.014 76.1898C391.866 72.8159 389.006 67.3691 386.747 64.6171L382.879 66.7395C385.32 69.7419 387.747 74.9766 388.645 78.5687ZM370.832 71.8869L368.062 68.3834C365.961 70.7421 362.066 73.8009 358.987 75.5204L361.76 79.3838C365.553 76.974 368.837 74.0287 370.832 71.8869ZM386.363 54.6481L383.531 55.8613C384.516 57.2566 385.653 59.3706 386.387 60.8401L389.255 59.5906C388.594 58.2644 387.276 55.972 386.363 54.6481ZM390.596 52.9904L387.763 54.2036C388.784 55.5266 389.956 57.6402 390.727 59.1454L393.559 57.8602C392.934 56.6057 391.581 54.3497 390.596 52.9904ZM375.265 94.8244L369.931 94.2958C369.993 96.9953 369.627 100.059 368.974 103.305C368.009 107.849 365.401 117.377 361.172 123.175L365.906 125.005C369.591 118.888 372.409 108.602 373.548 103.516C373.89 101.677 374.337 99.4408 374.645 97.818C374.853 96.9161 375.058 95.7622 375.265 94.8244ZM387.716 98.0618L383.414 99.9361C386.037 103.117 388.655 109.574 389.629 113.597L394.181 111.433C393.032 107.987 389.942 101.174 387.716 98.0618ZM360.756 102.334L361.235 107.19C362.313 107 364.182 106.731 365.225 106.578C367.202 106.309 373.387 105.461 375.547 105.442C377.778 105.422 379.043 105.843 379.07 108.723C379.104 112.251 378.678 116.647 377.69 118.672C377.125 119.865 376.229 120.233 375.005 120.244C374.069 120.252 372.013 119.91 370.606 119.527L371.407 124.272C372.67 124.549 374.364 124.75 375.768 124.737C378.468 124.713 380.44 123.903 381.64 121.373C383.122 118.263 383.57 112.427 383.529 108.179C383.479 102.96 380.763 101.292 376.983 101.325C374.283 101.349 367.487 102.202 364.608 102.299C363.276 102.347 362.053 102.394 360.756 102.334Z" fill="#BF1E1E"/>
<path d="M346 101L43 101" stroke="white" stroke-width="7"/>
</svg>
